<svg width="1058" height="613" viewBox="0 0 1058 613" fill="none" xmlns="http://www.w3.org/2000/svg">
<path fill-rule="evenodd" clip-rule="evenodd" d="M172.337 1.98816H234.941H278.106H893.619C913.254 1.98816 926.02 2.07241 936.7 5.32202C948.549 9.47272 955.215 15.8153 959.511 27.1794C962.902 37.4975 963.242 49.6166 963.242 68.5159V518.401C963.242 537.301 962.901 549.464 959.525 559.74C955.214 571.144 948.377 577.445 936.569 581.581C925.848 584.845 913.251 584.929 893.616 584.929C893.06 585.463 173.272 584.929 173.272 584.929C153.636 584.929 140.26 584.845 129.584 581.595C117.735 577.445 111.395 571.102 107.097 559.737C103.978 550.244 103.993 539.225 104.015 522.801C104.017 521.376 104.019 519.91 104.019 518.401V68.5159C104.019 67.0019 104.017 65.5312 104.015 64.1012C103.993 47.6808 103.977 36.632 107.083 27.1774C111.395 15.7732 117.579 9.47272 129.386 5.33584C140.105 2.07241 152.701 1.98816 172.337 1.98816Z" fill="#EDEDED"/>
<path d="M931.549 10.5276L931.714 10.0554L931.704 10.052L931.694 10.049L931.549 10.5276ZM954.069 31.9902L954.544 31.8333L954.541 31.8229L954.537 31.8125L954.069 31.9902ZM954.083 554.933L954.55 555.111L954.554 555.101L954.558 555.09L954.083 554.933ZM931.42 576.38L931.565 576.859L931.575 576.856L931.585 576.852L931.42 576.38ZM889.016 579.668V579.168H888.815L888.67 579.306L889.016 579.668ZM177.869 579.668L177.869 579.168H177.869V579.668ZM134.739 576.394L134.574 576.866L134.584 576.869L134.594 576.872L134.739 576.394ZM112.539 554.931L112.064 555.087L112.067 555.098L112.071 555.108L112.539 554.931ZM109.496 518.662L109.996 518.662L109.496 518.662ZM109.496 68.2453L108.996 68.2459L108.996 68.2459L109.496 68.2453ZM112.525 31.9883L112.058 31.8106L112.054 31.8209L112.05 31.8315L112.525 31.9883ZM134.544 10.5411L134.399 10.0626L134.389 10.0656L134.379 10.069L134.544 10.5411ZM238.751 6.75391H176.946V7.75391H238.751V6.75391ZM281.365 6.75391H238.751V7.75391H281.365V6.75391ZM889.019 6.75391H281.365V7.75391H889.019V6.75391ZM931.694 10.049C921.065 6.83195 908.377 6.75391 889.019 6.75391V7.75391C908.429 7.75391 920.948 7.84132 931.405 11.0061L931.694 10.049ZM954.537 31.8125C952.396 26.1798 949.654 21.7644 945.951 18.2405C942.248 14.7176 937.611 12.1099 931.714 10.0554L931.385 10.9997C937.186 13.021 941.688 15.5651 945.261 18.9649C948.833 22.3637 951.502 26.6417 953.602 32.1678L954.537 31.8125ZM958.253 72.5803C958.253 54.0395 957.922 42.0553 954.544 31.8333L953.595 32.1471C956.913 42.1888 957.253 54.005 957.253 72.5803H958.253ZM958.253 514.341V72.5803H957.253V514.341H958.253ZM954.558 555.09C957.92 544.909 958.253 532.882 958.253 514.341H957.253C957.253 532.917 956.911 544.776 953.608 554.776L954.558 555.09ZM931.585 576.852C937.46 574.806 942.129 572.212 945.87 568.697C949.612 565.181 952.401 560.766 954.55 555.111L953.616 554.756C951.509 560.299 948.795 564.576 945.185 567.969C941.573 571.362 937.038 573.894 931.256 575.908L931.585 576.852ZM889.016 580.168C908.375 580.168 920.895 580.089 931.565 576.859L931.275 575.902C920.777 579.08 908.425 579.168 889.016 579.168V580.168ZM177.869 579.668C177.869 580.168 177.871 580.168 177.877 580.168C177.882 580.168 177.89 580.168 177.901 580.168C177.923 580.168 177.955 580.168 177.998 580.168C178.084 580.168 178.213 580.168 178.384 580.168C178.725 580.168 179.235 580.169 179.907 580.169C181.252 580.17 183.247 580.172 185.849 580.173C191.054 580.177 198.688 580.182 208.403 580.189C227.835 580.202 255.595 580.221 288.908 580.241C355.535 580.282 444.377 580.332 533.237 580.364C622.096 580.397 710.972 580.414 777.668 580.389C811.016 580.377 838.819 580.354 858.302 580.318C868.044 580.3 875.706 580.279 880.941 580.254C883.559 580.242 885.571 580.228 886.933 580.214C887.613 580.207 888.134 580.199 888.486 580.191C888.662 580.187 888.8 580.183 888.896 580.179C888.943 580.177 888.985 580.175 889.019 580.172C889.037 580.17 889.064 580.167 889.082 580.165C889.115 580.159 889.26 580.104 889.361 580.029L888.67 579.306C888.769 579.233 888.907 579.181 888.927 579.177C888.932 579.176 888.94 579.175 888.935 579.176C888.921 579.177 888.895 579.178 888.852 579.18C888.767 579.184 888.638 579.188 888.464 579.192C888.117 579.199 887.602 579.207 886.922 579.214C885.563 579.228 883.554 579.242 880.936 579.254C875.702 579.279 868.042 579.3 858.3 579.318C838.818 579.354 811.015 579.377 777.667 579.389C710.972 579.414 622.096 579.397 533.237 579.364C444.378 579.332 355.536 579.282 288.909 579.241C255.595 579.221 227.835 579.202 208.404 579.189C198.688 579.182 191.055 579.177 185.85 579.173C183.248 579.172 181.252 579.17 179.908 579.169C179.236 579.169 178.726 579.168 178.384 579.168C178.214 579.168 178.085 579.168 177.999 579.168C177.956 579.168 177.924 579.168 177.902 579.168C177.891 579.168 177.883 579.168 177.878 579.168C177.872 579.168 177.869 579.168 177.869 579.668ZM134.594 576.872C145.221 580.09 158.511 580.168 177.869 580.168V579.168C158.457 579.168 145.337 579.08 134.884 575.915L134.594 576.872ZM112.071 555.108C114.211 560.737 116.872 565.152 120.495 568.678C124.117 572.203 128.676 574.811 134.574 576.866L134.903 575.922C129.104 573.901 124.684 571.359 121.192 567.961C117.7 564.563 115.109 560.284 113.006 554.753L112.071 555.108ZM108.996 518.661C108.974 534.759 108.954 545.672 112.064 555.087L113.013 554.774C109.965 545.546 109.974 534.819 109.996 518.662L108.996 518.661ZM109 514.341C109 515.823 108.998 517.262 108.996 518.661L109.996 518.662C109.998 517.263 110 515.823 110 514.341H109ZM109 72.5803V514.341H110V72.5803H109ZM108.996 68.2459C108.998 69.6502 109 71.094 109 72.5803H110C110 71.0932 109.998 69.6487 109.996 68.2446L108.996 68.2459ZM112.05 31.8315C108.954 41.2091 108.974 52.1513 108.996 68.2459L109.996 68.2446C109.974 52.0914 109.965 41.3352 113 32.145L112.05 31.8315ZM134.379 10.069C128.501 12.1175 123.99 14.7131 120.409 18.232C116.828 21.7505 114.204 26.1652 112.058 31.8106L112.993 32.1659C115.103 26.613 117.66 22.3352 121.11 18.9453C124.56 15.5557 128.93 13.027 134.708 11.0133L134.379 10.069ZM176.946 6.75391C157.586 6.75391 145.067 6.83199 134.399 10.0626L134.689 11.0197C145.184 7.84128 157.536 7.75391 176.946 7.75391V6.75391Z" fill="#151618"/>
<path fill-rule="evenodd" clip-rule="evenodd" d="M537.281 23.8574C534.72 23.8574 532.644 25.9343 532.644 28.4963C532.644 31.0583 534.72 33.1352 537.281 33.1352C539.843 33.1352 541.919 31.0583 541.919 28.4963C541.919 25.9343 539.843 23.8574 537.281 23.8574" fill="#151618"/>
<path fill-rule="evenodd" clip-rule="evenodd" d="M893.619 3.9628C913.043 3.9628 925.532 4.04771 935.866 7.19135C947.103 11.1281 953.491 16.9981 957.564 27.7724C960.846 37.7602 961.187 49.8193 961.187 68.5159V518.401C961.187 537.098 960.846 549.115 957.579 559.062C953.491 569.877 947.273 575.908 936.079 579.831C925.703 582.987 913.043 583.192 893.876 583.192H172.594C152.914 583.192 140.423 582.987 130.09 579.844C118.855 575.909 113.119 569.979 109.043 559.205C105.763 549.218 106.074 537.098 106.074 518.401V68.5159C106.074 49.8193 105.763 37.8023 109.029 27.8553C113.119 17.0409 119.011 11.1281 130.204 7.20517C140.578 4.04771 152.914 3.9628 172.337 3.9628H893.619ZM234.941 1.98816H172.337C152.701 1.98816 140.105 2.07241 129.386 5.33584C117.579 9.47272 111.395 15.7732 107.083 27.1774C103.707 37.4554 104.019 49.6172 104.019 68.5159V518.401C104.019 537.301 103.707 549.42 107.097 559.737C111.395 571.102 117.735 577.445 129.584 581.595C140.26 584.845 153.636 584.929 173.272 584.929C173.272 584.929 893.06 585.463 893.616 584.929C913.251 584.929 925.848 584.845 936.569 581.581C948.377 577.445 955.214 571.144 959.525 559.74C962.9 549.464 963.242 537.301 963.242 518.401V68.5159C963.242 49.6166 962.902 37.4975 959.511 27.1794C955.215 15.8153 948.549 9.47272 936.7 5.32202C926.02 2.07241 913.254 1.98816 893.619 1.98816H278.106H234.941Z" fill="#151618"/>
</svg>
