<svg width="54" height="54" viewBox="0 0 54 54" fill="none" xmlns="http://www.w3.org/2000/svg">
<path d="M0 27C0 41.9117 12.0883 54 27 54C41.9117 54 54 41.9117 54 27C54 12.0883 41.9117 0 27 0C12.0883 0 0 12.0883 0 27Z" fill="#F00073"/>
<path d="M26.9999 15.525C30.7124 15.525 31.2187 15.525 32.7374 15.525C34.0874 15.525 34.7624 15.8625 35.2687 16.0312C35.9437 16.3687 36.4499 16.5375 36.9562 17.0437C37.4624 17.55 37.7999 18.0562 37.9687 18.7312C38.1374 19.2375 38.3062 19.9125 38.4749 21.2625C38.4749 22.7812 38.4749 23.1187 38.4749 27C38.4749 30.8812 38.4749 31.2187 38.4749 32.7375C38.4749 34.0875 38.1374 34.7625 37.9687 35.2687C37.6312 35.9437 37.4624 36.45 36.9562 36.9562C36.4499 37.4625 35.9437 37.8 35.2687 37.9687C34.7624 38.1375 34.0874 38.3062 32.7374 38.475C31.2187 38.475 30.8812 38.475 26.9999 38.475C23.1187 38.475 22.7812 38.475 21.2624 38.475C19.9124 38.475 19.2374 38.1375 18.7312 37.9687C18.0562 37.6312 17.5499 37.4625 17.0437 36.9562C16.5374 36.45 16.1999 35.9437 16.0312 35.2687C15.8624 34.7625 15.6937 34.0875 15.5249 32.7375C15.5249 31.2187 15.5249 30.8812 15.5249 27C15.5249 23.1187 15.5249 22.7812 15.5249 21.2625C15.5249 19.9125 15.8624 19.2375 16.0312 18.7312C16.3687 18.0562 16.5374 17.55 17.0437 17.0437C17.5499 16.5375 18.0562 16.2 18.7312 16.0312C19.2374 15.8625 19.9124 15.6937 21.2624 15.525C22.7812 15.525 23.2874 15.525 26.9999 15.525ZM26.9999 12.9937C23.1187 12.9937 22.7812 12.9937 21.2624 12.9937C19.7437 12.9937 18.7312 13.3312 17.8874 13.6687C17.0437 14.0062 16.1999 14.5125 15.3562 15.3562C14.5124 16.2 14.1749 16.875 13.6687 17.8875C13.3312 18.7312 13.1624 19.7437 12.9937 21.2625C12.9937 22.7812 12.9937 23.2875 12.9937 27C12.9937 30.8812 12.9937 31.2187 12.9937 32.7375C12.9937 34.2562 13.3312 35.2687 13.6687 36.1125C14.0062 36.9562 14.5124 37.8 15.3562 38.6437C16.1999 39.4875 16.8749 39.825 17.8874 40.3312C18.7312 40.6687 19.7437 40.8375 21.2624 41.0062C22.7812 41.0062 23.2874 41.0062 26.9999 41.0062C30.7124 41.0062 31.2187 41.0062 32.7374 41.0062C34.2562 41.0062 35.2687 40.6687 36.1124 40.3312C36.9562 39.9937 37.7999 39.4875 38.6437 38.6437C39.4874 37.8 39.8249 37.125 40.3312 36.1125C40.6687 35.2687 40.8374 34.2562 41.0061 32.7375C41.0061 31.2187 41.0061 30.7125 41.0061 27C41.0061 23.2875 41.0061 22.7812 41.0061 21.2625C41.0061 19.7437 40.6687 18.7312 40.3312 17.8875C39.9937 17.0437 39.4874 16.2 38.6437 15.3562C37.7999 14.5125 37.1249 14.175 36.1124 13.6687C35.2687 13.3312 34.2562 13.1625 32.7374 12.9937C31.2187 12.9937 30.8812 12.9937 26.9999 12.9937Z" fill="white"/>
<path d="M26.9999 19.7437C22.9499 19.7437 19.7437 22.95 19.7437 27C19.7437 31.05 22.9499 34.2562 26.9999 34.2562C31.0499 34.2562 34.2562 31.05 34.2562 27C34.2562 22.95 31.0499 19.7437 26.9999 19.7437ZM26.9999 31.725C24.4687 31.725 22.2749 29.7 22.2749 27C22.2749 24.4687 24.2999 22.275 26.9999 22.275C29.5312 22.275 31.7249 24.3 31.7249 27C31.7249 29.5312 29.5312 31.725 26.9999 31.725Z" fill="white"/>
<path d="M34.4249 21.2625C35.3569 21.2625 36.1124 20.507 36.1124 19.575C36.1124 18.643 35.3569 17.8875 34.4249 17.8875C33.4929 17.8875 32.7374 18.643 32.7374 19.575C32.7374 20.507 33.4929 21.2625 34.4249 21.2625Z" fill="white"/>
</svg>
