<svg width="18" height="36" viewBox="0 0 18 36" fill="none" xmlns="http://www.w3.org/2000/svg">
<path d="M15.4457 0.00464249C16.0414 0.00347137 16.6188 0.212257 17.0776 0.594761C17.3358 0.810154 17.5492 1.07468 17.7056 1.3732C17.8621 1.67172 17.9584 1.99835 17.9892 2.3344C18.02 2.67046 17.9846 3.00932 17.8851 3.33158C17.7855 3.65385 17.6238 3.95319 17.409 4.21245L5.98573 17.9648L17.0011 31.7428C17.2129 32.0053 17.371 32.3073 17.4665 32.6314C17.5619 32.9556 17.5928 33.2955 17.5572 33.6317C17.5217 33.9679 17.4205 34.2937 17.2594 34.5904C17.0983 34.8871 16.8805 35.1488 16.6186 35.3605C16.3548 35.5941 16.0458 35.7703 15.7111 35.878C15.3764 35.9857 15.0232 36.0227 14.6736 35.9866C14.3241 35.9504 13.9857 35.842 13.6798 35.668C13.3738 35.494 13.1069 35.2583 12.8958 34.9757L0.580059 19.5812C0.205023 19.1221 0 18.5463 0 17.952C0 17.3577 0.205023 16.7818 0.580059 16.3227L13.3293 0.92831C13.5851 0.617809 13.91 0.37236 14.2777 0.21188C14.6454 0.0513954 15.0456 -0.0196075 15.4457 0.00464249Z" fill="#D9D9D9"/>
</svg>
