<svg width="9" height="18" viewBox="0 0 9 18" fill="none" xmlns="http://www.w3.org/2000/svg">
<path d="M7.72283 0.00232124C8.02072 0.0017356 8.30941 0.106129 8.53878 0.29738C8.66788 0.405076 8.77459 0.537342 8.85281 0.6866C8.93103 0.835858 8.97922 0.999176 8.99462 1.1672C9.01001 1.33523 8.99231 1.50466 8.94253 1.66579C8.89276 1.82693 8.81188 1.97659 8.70452 2.10623L2.99287 8.98241L8.50054 15.8714C8.60644 16.0026 8.68552 16.1536 8.73325 16.3157C8.78097 16.4778 8.79639 16.6477 8.77862 16.8158C8.76084 16.9839 8.71023 17.1468 8.62969 17.2952C8.54915 17.4435 8.44027 17.5744 8.3093 17.6803C8.17739 17.797 8.02291 17.8851 7.85556 17.939C7.68821 17.9929 7.5116 18.0114 7.33682 17.9933C7.16204 17.9752 6.99285 17.921 6.83988 17.834C6.68691 17.747 6.55347 17.6292 6.44791 17.4878L0.29003 9.79061C0.102511 9.56107 0 9.27314 0 8.97599C0 8.67885 0.102511 8.39092 0.29003 8.16137L6.66465 0.464155C6.79254 0.308906 6.95501 0.186182 7.13887 0.10594C7.32272 0.025698 7.52279 -0.00980263 7.72283 0.00232124Z" fill="white"/>
</svg>
