<svg width="9" height="18" viewBox="0 0 9 18" fill="none" xmlns="http://www.w3.org/2000/svg">
<path d="M1.27717 17.9977C0.979279 17.9983 0.69059 17.8939 0.461216 17.7026C0.332119 17.5949 0.225406 17.4627 0.147187 17.3134C0.0689677 17.1641 0.0207803 17.0008 0.00538454 16.8328C-0.0100113 16.6648 0.00768725 16.4953 0.057466 16.3342C0.107245 16.1731 0.188125 16.0234 0.295476 15.8938L6.00713 9.01759L0.499465 2.12859C0.393562 1.99736 0.314476 1.84637 0.266753 1.6843C0.219031 1.52222 0.203612 1.35225 0.221384 1.18416C0.239155 1.01607 0.289765 0.853166 0.370307 0.704819C0.450849 0.556472 0.559734 0.425605 0.690703 0.319739C0.822614 0.202951 0.977091 0.11486 1.14444 0.0609931C1.31179 0.00712667 1.4884 -0.0113514 1.66318 0.00671768C1.83796 0.0247868 2.00715 0.0790133 2.16012 0.165994C2.31309 0.252975 2.44654 0.370832 2.55209 0.512169L8.70997 8.20939C8.89749 8.43893 9 8.72686 9 9.02401C9 9.32115 8.89749 9.60908 8.70997 9.83863L2.33535 17.5358C2.20746 17.6911 2.04499 17.8138 1.86113 17.8941C1.67728 17.9743 1.47721 18.0098 1.27717 17.9977Z" fill="white"/>
</svg>
